<svg width="1267" height="251" xmlns="http://www.w3.org/2000/svg">

 <g>
  <title>Layer 1</title>
  <g id="svg_1">
   <path id="svg_2" d="m94.16985,248.23963c-27.09,0 -48.83,-8.14 -65.22,-24.43c-16.39,-16.29 -24.59,-37.97 -24.59,-65.06c0,-27.09 8.19,-48.78 24.59,-65.07c16.39,-16.29 38.13,-24.43 65.22,-24.43c21.5,0 39.77,5.32 54.79,15.97c15.02,10.65 24.69,26.25 29.01,46.8l-45.7,7.91c-9.17,1.69 -15.29,-0.74 -18.34,-7.27c-1.79,-3.9 -4.11,-6.98 -6.96,-9.25c-2.85,-2.27 -7.12,-3.4 -12.81,-3.4c-9.8,0 -17.37,3.66 -22.69,10.99c-5.32,7.33 -7.98,16.58 -7.98,27.75c0,11.17 2.66,20.42 7.98,27.75c5.32,7.33 12.89,10.99 22.69,10.99c4.21,0 7.67,-0.63 10.36,-1.9c2.69,-1.27 4.64,-2.71 5.85,-4.35c1.21,-1.63 2.71,-4.24 4.51,-7.83c1.79,-3.58 4.48,-5.98 8.06,-7.19c3.58,-1.21 7.43,-1.45 11.54,-0.71l44.91,6.96c-2.53,14.23 -7.88,26.35 -16.05,36.37c-8.17,10.02 -18.1,17.42 -29.81,22.21c-11.69,4.79 -24.82,7.19 -39.36,7.19z"/>
   <path id="svg_3" d="m271.44985,248.23963c-27.09,0 -48.83,-8.14 -65.22,-24.43c-16.39,-16.29 -24.59,-37.97 -24.59,-65.06c0,-27.09 8.19,-48.78 24.59,-65.07c16.39,-16.29 38.13,-24.43 65.22,-24.43c27.2,0 48.99,8.14 65.38,24.43c16.39,16.29 24.59,37.98 24.59,65.07c0,27.09 -8.2,48.78 -24.59,65.06c-16.39,16.29 -38.18,24.43 -65.38,24.43zm-22.69,-61.75c5.32,7.33 12.89,10.99 22.69,10.99c9.8,0 17.39,-3.66 22.77,-10.99c5.38,-7.32 8.06,-16.57 8.06,-27.75c0,-11.17 -2.69,-20.42 -8.06,-27.75c-5.38,-7.33 -12.97,-10.99 -22.77,-10.99c-9.8,0 -17.37,3.66 -22.69,10.99c-5.32,7.33 -7.98,16.58 -7.98,27.75c0,11.18 2.66,20.43 7.98,27.75z"/>
   <path id="svg_4" d="m465.41985,70.03963c22.17,0 39.49,6.51 51.97,19.53c12.48,13.02 18.72,31.42 18.72,55.2l0,103.46l-60.37,0l0,-94.59c0,-10.54 -1.83,-18.48 -5.49,-23.81c-3.66,-5.33 -9.58,-7.99 -17.75,-7.99c-7.1,0 -12.83,2.8 -17.19,8.39c-4.36,5.6 -6.54,13.4 -6.54,23.4l0,94.59l-60.37,0l0,-174.95l46.16,0c1.72,0 3.23,0.65 4.52,1.94c1.29,1.29 1.94,2.8 1.94,4.52l0,10.33c11.96,-13.34 26.75,-20.02 44.4,-20.02z"/>
   <path id="svg_5" d="m616.30985,248.23963c-15.23,0 -29.67,-1.64 -43.32,-4.92s-24.28,-7.67 -31.9,-13.17l20.47,-36.34c1.37,-2.54 3.38,-4.12 6.03,-4.76c2.64,-0.64 5.4,-0.21 8.25,1.27c12.8,5.71 25.76,8.57 38.88,8.57c9.31,0 13.96,-2.11 13.96,-6.35c0,-2.43 -1.48,-4.13 -4.44,-5.08c-4.44,-1.37 -11.53,-3.12 -21.26,-5.24c-9.73,-2.11 -17.61,-4.23 -23.64,-6.35c-10.69,-3.6 -19.1,-9.63 -25.23,-18.09c-6.14,-8.46 -9.2,-18.78 -9.2,-30.94c0,-17.35 6.27,-31.23 18.8,-41.65c12.54,-10.42 29.22,-15.63 50.06,-15.63c12.16,0 24.36,1.61 36.57,4.84c12.22,3.23 22.35,7.54 30.39,12.93l-18.57,37.92c-1.06,2.54 -2.83,4.18 -5.32,4.92c-2.49,0.74 -5.16,0.48 -8.01,-0.79c-16.72,-6.77 -30.84,-10.16 -42.37,-10.16c-1.8,0 -3.25,0.4 -4.36,1.19c-1.11,0.79 -1.67,1.77 -1.67,2.94c0,2.43 1.48,4.23 4.44,5.39c6.24,2.44 17.4,5.71 33.48,9.84c16.19,4.13 28.3,10.9 36.34,20.31c8.04,9.42 12.06,20.63 12.06,33.64c0,16.93 -6.4,30.44 -19.2,40.54c-12.78,10.12 -29.87,15.17 -51.24,15.17z"/>
   <path id="svg_6" d="m745.49985,56.94963c-5.7,5.65 -12.95,8.47 -21.73,8.47c-8.79,0 -16.03,-2.82 -21.73,-8.47c-5.7,-5.65 -8.55,-12.87 -8.55,-21.66s2.85,-16.03 8.55,-21.73c5.7,-5.7 12.95,-8.55 21.73,-8.55c8.79,0 16.03,2.85 21.73,8.55c5.7,5.7 8.55,12.95 8.55,21.73s-2.85,16.01 -8.55,21.66zm-51.08,191.29l0,-178.1l58.69,0l0,178.1l-58.69,0z"/>
   <path id="svg_7" d="m835.19985,248.23963c-21.13,0 -37.45,-5.91 -48.96,-17.73c-11.51,-11.82 -17.26,-28.61 -17.26,-50.37l0,-175.44l58.69,0l0,175.43c0,4.29 1.26,7.69 3.77,10.2s5.86,3.77 10.04,3.77l2.51,0c4.71,0 8.53,1.44 11.46,4.32c2.93,2.88 4.39,6.67 4.39,11.38l0,38.45l-24.64,0l0,-0.01z"/>
   <path id="svg_8" d="m921.43985,56.34963c-5.7,5.67 -12.95,8.5 -21.73,8.5c-8.79,0 -16.03,-2.83 -21.73,-8.5c-5.7,-5.67 -8.55,-12.91 -8.55,-21.72s2.85,-16.08 8.55,-21.8c5.7,-5.72 12.95,-8.58 21.73,-8.58c8.79,0 16.03,2.86 21.73,8.58c5.7,5.72 8.55,12.99 8.55,21.8s-2.85,16.05 -8.55,21.72zm-51.08,191.89l0,-178.66l58.69,0l0,178.66l-58.69,0z"/>
   <path id="svg_9" d="m1028.35985,248.23963c-27.07,0 -48.8,-8.14 -65.18,-24.41c-16.38,-16.27 -24.57,-37.95 -24.57,-65.02c0,-27.07 8.19,-48.75 24.57,-65.02c16.38,-16.28 38.11,-24.41 65.18,-24.41c27.18,0 48.96,8.14 65.34,24.41c16.38,16.27 24.57,37.95 24.57,65.02c0,27.07 -8.19,48.75 -24.57,65.02c-16.38,16.27 -38.16,24.41 -65.34,24.41zm-22.67,-61.7c5.32,7.32 12.88,10.98 22.67,10.98c9.8,0 17.38,-3.66 22.75,-10.98c5.37,-7.32 8.06,-16.56 8.06,-27.73c0,-11.16 -2.69,-20.41 -8.06,-27.73c-5.37,-7.32 -12.96,-10.98 -22.75,-10.98c-9.8,0 -17.36,3.66 -22.67,10.98c-5.32,7.32 -7.98,16.57 -7.98,27.73c0,11.16 2.66,20.41 7.98,27.73z"/>
   <g id="svg_10">
    <path id="svg_11" d="m1196.11985,243.38963c-7.12,4.42 -15.05,5.53 -23.78,3.35c-8.73,-2.18 -15.17,-6.89 -19.33,-14.12c-4.16,-7.23 -5.11,-15.35 -2.86,-24.34c2.25,-8.99 6.9,-15.67 13.96,-20.05c7.06,-4.38 14.95,-5.47 23.68,-3.29c8.73,2.18 15.2,6.87 19.43,14.06c4.22,7.19 5.21,15.29 2.96,24.28c-2.25,8.99 -6.94,15.69 -14.06,20.11zm-28.26,-74.17c0.61,-5.99 2.76,-19.89 6.45,-41.71c3.69,-21.82 6.57,-36.9 8.66,-45.25l19.66,-78.66l60.02,15l-19.57,78.33c-2.19,8.78 -6.24,21.41 -12.12,37.9c-5.89,16.49 -10.58,28.63 -14.06,36.39c-1.14,2.79 -2.81,4.84 -5.02,6.17c-2.21,1.32 -4.46,1.7 -6.74,1.13l-37.28,-9.3z"/>
   </g>
  </g>
 </g>
</svg>